<mxfile host="Electron" agent="Mozilla/5.0 (Windows NT 10.0; Win64; x64) AppleWebKit/537.36 (KHTML, like Gecko) draw.io/26.0.9 Chrome/128.0.6613.186 Electron/32.2.5 Safari/537.36" version="26.0.9">
  <diagram name="Page-1" id="fENma3xlgCL59qckklNP">
    <mxGraphModel dx="1313" dy="786" grid="1" gridSize="10" guides="1" tooltips="1" connect="1" arrows="1" fold="1" page="1" pageScale="1" pageWidth="850" pageHeight="1100" math="0" shadow="0">
      <root>
        <mxCell id="0" />
        <mxCell id="1" parent="0" />
        <mxCell id="1uF_EtqS6V25qAHk74lG-5" value="Karte g端ltig" style="edgeStyle=orthogonalEdgeStyle;html=1;align=left;verticalAlign=top;endArrow=open;endSize=8;strokeColor=#ff0000;rounded=0;" parent="1" source="1uF_EtqS6V25qAHk74lG-3" target="1uF_EtqS6V25qAHk74lG-14" edge="1">
          <mxGeometry x="-0.4815" relative="1" as="geometry">
            <mxPoint x="180" y="300" as="targetPoint" />
            <Array as="points">
              <mxPoint x="180" y="240" />
            </Array>
            <mxPoint as="offset" />
          </mxGeometry>
        </mxCell>
        <mxCell id="1uF_EtqS6V25qAHk74lG-12" value="" style="edgeStyle=orthogonalEdgeStyle;html=1;align=left;verticalAlign=top;endArrow=open;endSize=8;strokeColor=#ff0000;rounded=0;" parent="1" source="1uF_EtqS6V25qAHk74lG-7" target="1uF_EtqS6V25qAHk74lG-82" edge="1">
          <mxGeometry x="-1" relative="1" as="geometry">
            <mxPoint x="190" y="350" as="targetPoint" />
            <mxPoint x="190" y="250" as="sourcePoint" />
          </mxGeometry>
        </mxCell>
        <mxCell id="1uF_EtqS6V25qAHk74lG-13" value="Pin richtig" style="edgeStyle=orthogonalEdgeStyle;html=1;align=left;verticalAlign=top;endArrow=open;endSize=8;strokeColor=#ff0000;rounded=0;" parent="1" source="1uF_EtqS6V25qAHk74lG-9" target="1uF_EtqS6V25qAHk74lG-22" edge="1">
          <mxGeometry x="-0.641" relative="1" as="geometry">
            <mxPoint x="180" y="520" as="targetPoint" />
            <mxPoint x="179.5" y="500" as="sourcePoint" />
            <mxPoint as="offset" />
          </mxGeometry>
        </mxCell>
        <mxCell id="1uF_EtqS6V25qAHk74lG-23" value="" style="edgeStyle=orthogonalEdgeStyle;html=1;align=left;verticalAlign=top;endArrow=open;endSize=8;strokeColor=#ff0000;rounded=0;" parent="1" source="1uF_EtqS6V25qAHk74lG-22" target="1uF_EtqS6V25qAHk74lG-24" edge="1">
          <mxGeometry x="-1" relative="1" as="geometry">
            <mxPoint x="170" y="640" as="targetPoint" />
            <mxPoint x="170" y="580" as="sourcePoint" />
            <Array as="points">
              <mxPoint x="180" y="470" />
            </Array>
          </mxGeometry>
        </mxCell>
        <mxCell id="1uF_EtqS6V25qAHk74lG-68" value="Kunde" style="shape=umlFrame;whiteSpace=wrap;html=1;pointerEvents=0;recursiveResize=0;container=1;collapsible=0;width=160;" parent="1" vertex="1">
          <mxGeometry x="40" y="110" width="290" height="590" as="geometry" />
        </mxCell>
        <mxCell id="1uF_EtqS6V25qAHk74lG-1" value="" style="ellipse;html=1;shape=startState;fillColor=#000000;strokeColor=#ff0000;" parent="1uF_EtqS6V25qAHk74lG-68" vertex="1">
          <mxGeometry x="60" y="45" width="30" height="30" as="geometry" />
        </mxCell>
        <mxCell id="1uF_EtqS6V25qAHk74lG-70" value="Karte eingeben" style="rounded=1;whiteSpace=wrap;html=1;arcSize=40;fontColor=#000000;fillColor=#ffffc0;strokeColor=#ff0000;" parent="1uF_EtqS6V25qAHk74lG-68" vertex="1">
          <mxGeometry x="155" y="40" width="120" height="40" as="geometry" />
        </mxCell>
        <mxCell id="1uF_EtqS6V25qAHk74lG-2" value="" style="edgeStyle=orthogonalEdgeStyle;html=1;verticalAlign=bottom;endArrow=open;endSize=8;strokeColor=#ff0000;rounded=0;" parent="1uF_EtqS6V25qAHk74lG-68" source="1uF_EtqS6V25qAHk74lG-1" target="1uF_EtqS6V25qAHk74lG-70" edge="1">
          <mxGeometry relative="1" as="geometry">
            <mxPoint x="140" y="90" as="targetPoint" />
          </mxGeometry>
        </mxCell>
        <mxCell id="1uF_EtqS6V25qAHk74lG-14" value="" style="rhombus;whiteSpace=wrap;html=1;fontColor=#000000;fillColor=#ffffc0;strokeColor=#ff0000;" parent="1uF_EtqS6V25qAHk74lG-68" vertex="1">
          <mxGeometry x="100" y="150" width="80" height="40" as="geometry" />
        </mxCell>
        <mxCell id="1uF_EtqS6V25qAHk74lG-7" value="PIN eingeben" style="rounded=1;whiteSpace=wrap;html=1;arcSize=40;fontColor=#000000;fillColor=#ffffc0;strokeColor=#ff0000;" parent="1uF_EtqS6V25qAHk74lG-68" vertex="1">
          <mxGeometry x="80" y="210" width="120" height="40" as="geometry" />
        </mxCell>
        <mxCell id="1uF_EtqS6V25qAHk74lG-15" value="" style="edgeStyle=orthogonalEdgeStyle;html=1;align=left;verticalAlign=top;endArrow=open;endSize=8;strokeColor=#ff0000;rounded=0;" parent="1uF_EtqS6V25qAHk74lG-68" source="1uF_EtqS6V25qAHk74lG-14" target="1uF_EtqS6V25qAHk74lG-7" edge="1">
          <mxGeometry x="-1" relative="1" as="geometry">
            <mxPoint x="150" y="330" as="targetPoint" />
            <mxPoint x="150" y="290" as="sourcePoint" />
          </mxGeometry>
        </mxCell>
        <mxCell id="1uF_EtqS6V25qAHk74lG-22" value="Gew端nschter Betrag eingeben" style="rounded=1;whiteSpace=wrap;html=1;arcSize=40;fontColor=#000000;fillColor=#ffffc0;strokeColor=#ff0000;" parent="1uF_EtqS6V25qAHk74lG-68" vertex="1">
          <mxGeometry x="80" y="270" width="120" height="40" as="geometry" />
        </mxCell>
        <mxCell id="1uF_EtqS6V25qAHk74lG-69" value="Bankautomat" style="shape=umlFrame;whiteSpace=wrap;html=1;pointerEvents=0;recursiveResize=0;container=1;collapsible=0;width=160;" parent="1" vertex="1">
          <mxGeometry x="330" y="110" width="400" height="590" as="geometry" />
        </mxCell>
        <mxCell id="1uF_EtqS6V25qAHk74lG-72" value="Karte pr端fen" style="rounded=1;whiteSpace=wrap;html=1;arcSize=40;fontColor=#000000;fillColor=#ffffc0;strokeColor=#ff0000;" parent="1uF_EtqS6V25qAHk74lG-69" vertex="1">
          <mxGeometry x="50" y="40" width="120" height="40" as="geometry" />
        </mxCell>
        <mxCell id="1uF_EtqS6V25qAHk74lG-3" value="" style="rhombus;whiteSpace=wrap;html=1;fontColor=#000000;fillColor=#ffffc0;strokeColor=#ff0000;" parent="1uF_EtqS6V25qAHk74lG-69" vertex="1">
          <mxGeometry x="70" y="110" width="80" height="40" as="geometry" />
        </mxCell>
        <mxCell id="1uF_EtqS6V25qAHk74lG-75" value="" style="edgeStyle=orthogonalEdgeStyle;html=1;align=left;verticalAlign=bottom;endArrow=open;endSize=8;strokeColor=#ff0000;rounded=0;" parent="1uF_EtqS6V25qAHk74lG-69" source="1uF_EtqS6V25qAHk74lG-72" target="1uF_EtqS6V25qAHk74lG-3" edge="1">
          <mxGeometry x="-1" relative="1" as="geometry">
            <mxPoint x="215" y="290" as="targetPoint" />
            <mxPoint x="120" y="160" as="sourcePoint" />
          </mxGeometry>
        </mxCell>
        <mxCell id="1uF_EtqS6V25qAHk74lG-73" value="Karte einbehalten" style="rounded=1;whiteSpace=wrap;html=1;arcSize=40;fontColor=#000000;fillColor=#ffffc0;strokeColor=#ff0000;" parent="1uF_EtqS6V25qAHk74lG-69" vertex="1">
          <mxGeometry x="270" y="270" width="120" height="40" as="geometry" />
        </mxCell>
        <mxCell id="1uF_EtqS6V25qAHk74lG-4" value="Karte ung端ltig" style="edgeStyle=orthogonalEdgeStyle;html=1;align=left;verticalAlign=bottom;endArrow=open;endSize=8;strokeColor=#ff0000;rounded=0;" parent="1uF_EtqS6V25qAHk74lG-69" source="1uF_EtqS6V25qAHk74lG-3" target="1uF_EtqS6V25qAHk74lG-76" edge="1">
          <mxGeometry x="-0.7333" relative="1" as="geometry">
            <mxPoint x="110" y="280" as="targetPoint" />
            <mxPoint as="offset" />
          </mxGeometry>
        </mxCell>
        <mxCell id="1uF_EtqS6V25qAHk74lG-20" value="" style="ellipse;html=1;shape=endState;fillColor=#000000;strokeColor=#ff0000;" parent="1uF_EtqS6V25qAHk74lG-69" vertex="1">
          <mxGeometry x="315" y="390" width="30" height="30" as="geometry" />
        </mxCell>
        <mxCell id="1uF_EtqS6V25qAHk74lG-74" value="Vorgang abgebrochen" style="rounded=1;whiteSpace=wrap;html=1;arcSize=40;fontColor=#000000;fillColor=#ffffc0;strokeColor=#ff0000;" parent="1uF_EtqS6V25qAHk74lG-69" vertex="1">
          <mxGeometry x="270" y="330" width="120" height="40" as="geometry" />
        </mxCell>
        <mxCell id="1uF_EtqS6V25qAHk74lG-76" value="" style="rhombus;whiteSpace=wrap;html=1;fontColor=#000000;fillColor=#ffffc0;strokeColor=#ff0000;" parent="1uF_EtqS6V25qAHk74lG-69" vertex="1">
          <mxGeometry x="290" y="190" width="80" height="40" as="geometry" />
        </mxCell>
        <mxCell id="1uF_EtqS6V25qAHk74lG-78" value="" style="edgeStyle=orthogonalEdgeStyle;html=1;verticalAlign=bottom;endArrow=open;endSize=8;strokeColor=#ff0000;rounded=0;" parent="1uF_EtqS6V25qAHk74lG-69" source="1uF_EtqS6V25qAHk74lG-76" target="1uF_EtqS6V25qAHk74lG-73" edge="1">
          <mxGeometry relative="1" as="geometry">
            <mxPoint x="305" y="295" as="targetPoint" />
            <mxPoint x="240" y="280" as="sourcePoint" />
          </mxGeometry>
        </mxCell>
        <mxCell id="1uF_EtqS6V25qAHk74lG-79" value="" style="edgeStyle=orthogonalEdgeStyle;html=1;verticalAlign=bottom;endArrow=open;endSize=8;strokeColor=#ff0000;rounded=0;" parent="1uF_EtqS6V25qAHk74lG-69" source="1uF_EtqS6V25qAHk74lG-73" target="1uF_EtqS6V25qAHk74lG-74" edge="1">
          <mxGeometry relative="1" as="geometry">
            <mxPoint x="340" y="280" as="targetPoint" />
            <mxPoint x="340" y="240" as="sourcePoint" />
          </mxGeometry>
        </mxCell>
        <mxCell id="1uF_EtqS6V25qAHk74lG-80" value="" style="edgeStyle=orthogonalEdgeStyle;html=1;verticalAlign=bottom;endArrow=open;endSize=8;strokeColor=#ff0000;rounded=0;" parent="1uF_EtqS6V25qAHk74lG-69" source="1uF_EtqS6V25qAHk74lG-74" target="1uF_EtqS6V25qAHk74lG-20" edge="1">
          <mxGeometry relative="1" as="geometry">
            <mxPoint x="340" y="340" as="targetPoint" />
            <mxPoint x="340" y="320" as="sourcePoint" />
          </mxGeometry>
        </mxCell>
        <mxCell id="1uF_EtqS6V25qAHk74lG-82" value="Pin 端berpr端fen" style="rounded=1;whiteSpace=wrap;html=1;arcSize=40;fontColor=#000000;fillColor=#ffffc0;strokeColor=#ff0000;" parent="1uF_EtqS6V25qAHk74lG-69" vertex="1">
          <mxGeometry x="50" y="210" width="120" height="40" as="geometry" />
        </mxCell>
        <mxCell id="1uF_EtqS6V25qAHk74lG-9" value="" style="rhombus;whiteSpace=wrap;html=1;fontColor=#000000;fillColor=#ffffc0;strokeColor=#ff0000;" parent="1uF_EtqS6V25qAHk74lG-69" vertex="1">
          <mxGeometry x="70" y="270" width="80" height="40" as="geometry" />
        </mxCell>
        <mxCell id="1uF_EtqS6V25qAHk74lG-81" value="" style="rhombus;whiteSpace=wrap;html=1;fontColor=#000000;fillColor=#ffffc0;strokeColor=#ff0000;" parent="1uF_EtqS6V25qAHk74lG-69" vertex="1">
          <mxGeometry x="180" y="190" width="80" height="40" as="geometry" />
        </mxCell>
        <mxCell id="1uF_EtqS6V25qAHk74lG-83" value="Pin falsch" style="edgeStyle=orthogonalEdgeStyle;html=1;align=left;verticalAlign=top;endArrow=open;endSize=8;strokeColor=#ff0000;rounded=0;" parent="1uF_EtqS6V25qAHk74lG-69" source="1uF_EtqS6V25qAHk74lG-9" target="1uF_EtqS6V25qAHk74lG-81" edge="1">
          <mxGeometry x="-0.641" relative="1" as="geometry">
            <mxPoint x="-140" y="430" as="targetPoint" />
            <mxPoint x="80" y="290" as="sourcePoint" />
            <mxPoint as="offset" />
          </mxGeometry>
        </mxCell>
        <mxCell id="1uF_EtqS6V25qAHk74lG-84" value="versuche &amp;gt;=3" style="edgeStyle=orthogonalEdgeStyle;html=1;align=left;verticalAlign=top;endArrow=open;endSize=8;strokeColor=#ff0000;rounded=0;" parent="1uF_EtqS6V25qAHk74lG-69" source="1uF_EtqS6V25qAHk74lG-81" target="1uF_EtqS6V25qAHk74lG-76" edge="1">
          <mxGeometry x="-0.641" relative="1" as="geometry">
            <mxPoint x="230" y="240" as="targetPoint" />
            <mxPoint x="160" y="290" as="sourcePoint" />
            <mxPoint as="offset" />
          </mxGeometry>
        </mxCell>
        <mxCell id="1uF_EtqS6V25qAHk74lG-87" value="" style="edgeStyle=orthogonalEdgeStyle;html=1;align=left;verticalAlign=top;endArrow=open;endSize=8;strokeColor=#ff0000;rounded=0;" parent="1uF_EtqS6V25qAHk74lG-69" source="1uF_EtqS6V25qAHk74lG-82" target="1uF_EtqS6V25qAHk74lG-9" edge="1">
          <mxGeometry x="-1" relative="1" as="geometry">
            <mxPoint x="60" y="240" as="targetPoint" />
            <mxPoint x="-80" y="240" as="sourcePoint" />
          </mxGeometry>
        </mxCell>
        <mxCell id="1uF_EtqS6V25qAHk74lG-24" value="Konto Aktualisieren" style="rounded=1;whiteSpace=wrap;html=1;arcSize=40;fontColor=#000000;fillColor=#ffffc0;strokeColor=#ff0000;" parent="1uF_EtqS6V25qAHk74lG-69" vertex="1">
          <mxGeometry x="50" y="340" width="120" height="40" as="geometry" />
        </mxCell>
        <mxCell id="1uF_EtqS6V25qAHk74lG-26" value="Geld ausgeben" style="rounded=1;whiteSpace=wrap;html=1;arcSize=40;fontColor=#000000;fillColor=#ffffc0;strokeColor=#ff0000;" parent="1uF_EtqS6V25qAHk74lG-69" vertex="1">
          <mxGeometry x="50" y="460" width="120" height="40" as="geometry" />
        </mxCell>
        <mxCell id="1uF_EtqS6V25qAHk74lG-27" value="" style="ellipse;html=1;shape=endState;fillColor=#000000;strokeColor=#ff0000;" parent="1uF_EtqS6V25qAHk74lG-69" vertex="1">
          <mxGeometry x="95" y="520" width="30" height="30" as="geometry" />
        </mxCell>
        <mxCell id="1uF_EtqS6V25qAHk74lG-28" value="" style="edgeStyle=orthogonalEdgeStyle;html=1;align=left;verticalAlign=top;endArrow=open;endSize=8;strokeColor=#ff0000;rounded=0;" parent="1uF_EtqS6V25qAHk74lG-69" source="1uF_EtqS6V25qAHk74lG-26" target="1uF_EtqS6V25qAHk74lG-27" edge="1">
          <mxGeometry x="-1" relative="1" as="geometry">
            <mxPoint x="-140" y="570" as="targetPoint" />
            <mxPoint x="-140" y="540" as="sourcePoint" />
          </mxGeometry>
        </mxCell>
        <mxCell id="1uF_EtqS6V25qAHk74lG-89" value="Konto Aktualisieren" style="rounded=1;whiteSpace=wrap;html=1;arcSize=40;fontColor=#000000;fillColor=#ffffc0;strokeColor=#ff0000;" parent="1uF_EtqS6V25qAHk74lG-69" vertex="1">
          <mxGeometry x="50" y="400" width="120" height="40" as="geometry" />
        </mxCell>
        <mxCell id="1uF_EtqS6V25qAHk74lG-25" value="" style="edgeStyle=orthogonalEdgeStyle;html=1;align=left;verticalAlign=top;endArrow=open;endSize=8;strokeColor=#ff0000;rounded=0;" parent="1uF_EtqS6V25qAHk74lG-69" source="1uF_EtqS6V25qAHk74lG-24" target="1uF_EtqS6V25qAHk74lG-89" edge="1">
          <mxGeometry x="-1" relative="1" as="geometry">
            <mxPoint x="-160" y="600" as="targetPoint" />
            <mxPoint x="-150" y="530" as="sourcePoint" />
          </mxGeometry>
        </mxCell>
        <mxCell id="1uF_EtqS6V25qAHk74lG-90" value="" style="edgeStyle=orthogonalEdgeStyle;html=1;align=left;verticalAlign=top;endArrow=open;endSize=8;strokeColor=#ff0000;rounded=0;" parent="1uF_EtqS6V25qAHk74lG-69" source="1uF_EtqS6V25qAHk74lG-89" target="1uF_EtqS6V25qAHk74lG-26" edge="1">
          <mxGeometry x="-1" relative="1" as="geometry">
            <mxPoint x="310" y="550" as="targetPoint" />
            <mxPoint x="180" y="370" as="sourcePoint" />
          </mxGeometry>
        </mxCell>
        <mxCell id="1uF_EtqS6V25qAHk74lG-71" value="" style="edgeStyle=orthogonalEdgeStyle;html=1;align=left;verticalAlign=bottom;endArrow=open;endSize=8;strokeColor=#ff0000;rounded=0;" parent="1" source="1uF_EtqS6V25qAHk74lG-70" target="1uF_EtqS6V25qAHk74lG-72" edge="1">
          <mxGeometry x="-1" relative="1" as="geometry">
            <mxPoint x="455" y="170" as="targetPoint" />
            <mxPoint x="315" y="170" as="sourcePoint" />
          </mxGeometry>
        </mxCell>
        <mxCell id="1uF_EtqS6V25qAHk74lG-85" value="versuche &amp;lt; 3" style="edgeStyle=orthogonalEdgeStyle;html=1;align=left;verticalAlign=top;endArrow=open;endSize=8;strokeColor=#ff0000;rounded=0;" parent="1" source="1uF_EtqS6V25qAHk74lG-81" target="1uF_EtqS6V25qAHk74lG-14" edge="1">
          <mxGeometry x="-0.641" relative="1" as="geometry">
            <mxPoint x="560" y="350" as="targetPoint" />
            <mxPoint x="490" y="400" as="sourcePoint" />
            <mxPoint as="offset" />
            <Array as="points">
              <mxPoint x="550" y="280" />
            </Array>
          </mxGeometry>
        </mxCell>
      </root>
    </mxGraphModel>
  </diagram>
</mxfile>
